<svg width="345" height="110" viewBox="0 0 345 110" fill="none" xmlns="http://www.w3.org/2000/svg">
<path d="M74.3899 57.409L54.8424 23.5541C54.7478 23.3869 54.6107 23.2477 54.445 23.1504C54.2794 23.0531 54.091 23.0012 53.8989 23C53.7068 22.9988 53.5177 23.0483 53.3509 23.1434C53.184 23.2386 53.0452 23.3761 52.9485 23.542L47.0942 33.6864C46.9024 34.0184 46.8015 34.3951 46.8015 34.7786C46.8015 35.162 46.9024 35.5387 47.0942 35.8708L59.8404 57.9566C60.0323 58.289 60.3084 58.565 60.6409 58.7567C60.9734 58.9485 61.3505 59.0492 61.7343 59.0488H73.4429C73.6346 59.0483 73.8228 58.9974 73.9886 58.9013C74.1545 58.8052 74.2922 58.6673 74.3881 58.5013C74.484 58.3353 74.5345 58.1471 74.5349 57.9554C74.5352 57.7637 74.4852 57.5753 74.3899 57.409Z" fill="url(#paint0_linear)"/>
<path d="M23.1507 75.1029L42.6982 41.2479C42.7941 41.0821 42.932 40.9444 43.098 40.8487C43.2639 40.753 43.4521 40.7026 43.6437 40.7026C43.8353 40.7026 44.0235 40.753 44.1895 40.8487C44.3554 40.9444 44.4932 41.0821 44.5891 41.2479L50.4465 51.3832C50.6382 51.7159 50.739 52.093 50.739 52.4769C50.739 52.8609 50.6382 53.238 50.4465 53.5707L37.7002 75.6565C37.509 75.9889 37.2335 76.2649 36.9015 76.4567C36.5695 76.6484 36.1927 76.7492 35.8092 76.7487H24.0977C23.9048 76.7497 23.715 76.6995 23.5478 76.6034C23.3805 76.5072 23.2417 76.3685 23.1455 76.2012C23.0493 76.034 22.9991 75.8443 23 75.6513C23.0009 75.4584 23.0529 75.2692 23.1507 75.1029Z" fill="url(#paint1_linear)"/>
<path d="M44.5863 76.7415H83.6813C83.8731 76.7413 84.0615 76.6906 84.2275 76.5945C84.3935 76.4985 84.5312 76.3604 84.6269 76.1942C84.7225 76.028 84.7728 75.8395 84.7725 75.6477C84.7723 75.4559 84.7215 75.2676 84.6253 75.1017L78.7771 64.9603C78.5852 64.6279 78.3091 64.352 77.9766 64.1602C77.6441 63.9685 77.267 63.8677 76.8831 63.8681H51.3906C51.0068 63.8677 50.6297 63.9685 50.2972 64.1602C49.9647 64.352 49.6886 64.6279 49.4967 64.9603L43.6424 75.1017C43.5463 75.2676 43.4955 75.4559 43.4952 75.6477C43.495 75.8395 43.5451 76.028 43.6408 76.1942C43.7365 76.3604 43.8743 76.4985 44.0403 76.5945C44.2062 76.6906 44.3946 76.7413 44.5863 76.7415Z" fill="url(#paint2_linear)"/>
<path d="M117.64 56.2318V55.4742C117.64 53.5705 116.999 52.1136 115.717 51.1035C114.474 50.0546 112.842 49.5301 110.822 49.5301C109.268 49.5301 108.044 49.802 107.15 50.3459C106.296 50.851 105.48 51.628 104.703 52.677C104.47 52.9878 104.217 53.2015 103.945 53.318C103.673 53.4346 103.304 53.4928 102.838 53.4928H101.09C100.662 53.4928 100.274 53.3374 99.9241 53.0266C99.6133 52.7158 99.4773 52.3467 99.5162 51.9194C99.6327 50.7539 100.196 49.6078 101.206 48.4811C102.255 47.3156 103.634 46.3638 105.344 45.6256C107.053 44.8874 108.879 44.5184 110.822 44.5184C114.435 44.5184 117.349 45.5285 119.563 47.5487C121.816 49.5689 122.943 52.405 122.943 56.057V73.8311C122.943 74.2585 122.788 74.6275 122.477 74.9384C122.166 75.2492 121.797 75.4046 121.37 75.4046H119.213C118.786 75.4046 118.417 75.2492 118.106 74.9384C117.795 74.6275 117.64 74.2585 117.64 73.8311V71.4418C117.018 72.8404 115.697 73.9477 113.677 74.7635C111.657 75.5794 109.637 75.9873 107.617 75.9873C105.635 75.9873 103.867 75.6377 102.313 74.9384C100.759 74.2002 99.555 73.2095 98.7003 71.9663C97.8845 70.7231 97.4765 69.3244 97.4765 67.7704C97.4765 64.8566 98.5643 62.5839 100.74 60.9521C102.916 59.2816 105.81 58.1549 109.423 57.5721L117.64 56.2318ZM117.64 60.8939L110.763 62.0011C108.238 62.3896 106.276 63.0307 104.878 63.9242C103.479 64.7789 102.78 65.8667 102.78 67.1877C102.78 68.1589 103.226 69.0331 104.12 69.8101C105.014 70.5871 106.373 70.9756 108.199 70.9756C110.997 70.9756 113.269 70.1792 115.018 68.5863C116.766 66.9934 117.64 64.9149 117.64 62.3508V60.8939Z" fill="url(#paint3_linear)"/>
<path d="M136.749 73.8311C136.749 74.2585 136.593 74.6275 136.282 74.9384C135.972 75.2492 135.602 75.4046 135.175 75.4046H133.019C132.592 75.4046 132.222 75.2492 131.912 74.9384C131.601 74.6275 131.445 74.2585 131.445 73.8311V35.6021C131.445 35.1748 131.601 34.8057 131.912 34.4949C132.222 34.1841 132.592 34.0287 133.019 34.0287H135.175C135.602 34.0287 135.972 34.1841 136.282 34.4949C136.593 34.8057 136.749 35.1748 136.749 35.6021V73.8311Z" fill="url(#paint4_linear)"/>
<path d="M157.74 70.9756C161.625 70.9756 164.248 69.4604 165.607 66.4301C165.879 65.8473 166.151 65.4394 166.423 65.2063C166.695 64.9732 167.064 64.8566 167.53 64.8566H169.279C169.706 64.8566 170.075 65.012 170.386 65.3228C170.697 65.5948 170.852 65.925 170.852 66.3135C170.852 67.6344 170.328 69.0525 169.279 70.5677C168.23 72.0828 166.715 73.3649 164.733 74.4139C162.752 75.4628 160.421 75.9873 157.74 75.9873C154.982 75.9873 152.592 75.4046 150.572 74.239C148.552 73.0735 146.998 71.4807 145.91 69.4604C144.822 67.4013 144.22 65.1092 144.104 62.5839C144.065 62.1177 144.045 61.2241 144.045 59.9032C144.045 58.9708 144.065 58.3103 144.104 57.9218C144.453 53.959 145.794 50.7344 148.125 48.248C150.456 45.7616 153.661 44.5184 157.74 44.5184C160.421 44.5184 162.732 45.0428 164.675 46.0918C166.656 47.1019 168.152 48.3646 169.162 49.8797C170.211 51.3561 170.775 52.7547 170.852 54.0756C170.891 54.503 170.736 54.872 170.386 55.1828C170.075 55.4936 169.706 55.649 169.279 55.649H167.53C167.064 55.649 166.695 55.5325 166.423 55.2994C166.151 55.0663 165.879 54.6584 165.607 54.0756C164.248 51.0452 161.625 49.5301 157.74 49.5301C155.603 49.5301 153.739 50.2488 152.146 51.6863C150.553 53.1238 149.64 55.2994 149.407 58.2132C149.368 58.6405 149.348 59.3398 149.348 60.3111C149.348 61.2047 149.368 61.8651 149.407 62.2925C149.679 65.2063 150.592 67.3819 152.146 68.8194C153.739 70.2569 155.603 70.9756 157.74 70.9756Z" fill="url(#paint5_linear)"/>
<path d="M204.751 73.8311C204.751 74.2585 204.595 74.6275 204.284 74.9384C203.974 75.2492 203.604 75.4046 203.177 75.4046H201.021C200.594 75.4046 200.224 75.2492 199.914 74.9384C199.603 74.6275 199.447 74.2585 199.447 73.8311V58.4463C199.447 55.5325 198.729 53.318 197.291 51.8028C195.854 50.2877 193.853 49.5301 191.289 49.5301C188.764 49.5301 186.763 50.2877 185.286 51.8028C183.849 53.318 183.13 55.5325 183.13 58.4463V73.8311C183.13 74.2585 182.975 74.6275 182.664 74.9384C182.353 75.2492 181.984 75.4046 181.557 75.4046H179.401C178.973 75.4046 178.604 75.2492 178.293 74.9384C177.983 74.6275 177.827 74.2585 177.827 73.8311V35.6021C177.827 35.1748 177.983 34.8057 178.293 34.4949C178.604 34.1841 178.973 34.0287 179.401 34.0287H181.557C181.984 34.0287 182.353 34.1841 182.664 34.4949C182.975 34.8057 183.13 35.1748 183.13 35.6021V48.4811C183.985 47.3544 185.15 46.422 186.627 45.6839C188.142 44.9069 189.987 44.5184 192.163 44.5184C194.611 44.5184 196.786 45.0428 198.69 46.0918C200.594 47.1408 202.07 48.6559 203.119 50.6373C204.207 52.5798 204.751 54.8915 204.751 57.5721V73.8311Z" fill="url(#paint6_linear)"/>
<path d="M225.172 44.5184C229.329 44.5184 232.612 45.8393 235.02 48.4811C237.429 51.123 238.633 54.7166 238.633 59.2621V60.8356C238.633 61.263 238.478 61.632 238.167 61.9428C237.856 62.2536 237.487 62.409 237.06 62.409H217.013V62.7587C217.091 65.3228 217.868 67.3431 219.344 68.8194C220.859 70.2569 222.802 70.9756 225.172 70.9756C227.114 70.9756 228.61 70.7231 229.659 70.218C230.747 69.713 231.718 68.9942 232.573 68.0618C232.884 67.751 233.155 67.5373 233.389 67.4208C233.661 67.3042 234.01 67.2459 234.438 67.2459H236.186C236.652 67.2459 237.041 67.4013 237.351 67.7121C237.662 68.023 237.798 68.392 237.759 68.8194C237.604 69.8684 237.021 70.9562 236.011 72.0828C235.04 73.1707 233.622 74.1031 231.757 74.8801C229.931 75.6182 227.736 75.9873 225.172 75.9873C222.685 75.9873 220.471 75.424 218.528 74.2973C216.586 73.1318 215.032 71.5389 213.866 69.5187C212.739 67.4985 212.06 65.2257 211.827 62.7004C211.749 61.5349 211.71 60.6413 211.71 60.0197C211.71 59.3981 211.749 58.5046 211.827 57.339C212.06 54.9303 212.739 52.7547 213.866 50.8121C215.032 48.8696 216.566 47.335 218.47 46.2084C220.412 45.0817 222.646 44.5184 225.172 44.5184ZM233.389 57.5139V57.339C233.389 54.9692 232.631 53.0849 231.116 51.6863C229.639 50.2488 227.658 49.5301 225.172 49.5301C222.918 49.5301 220.995 50.2488 219.402 51.6863C217.848 53.1238 217.052 55.008 217.013 57.339V57.5139H233.389Z" fill="url(#paint7_linear)"/>
<path d="M250.967 48.4811C251.899 47.2767 252.948 46.3249 254.114 45.6256C255.279 44.8874 256.833 44.5184 258.776 44.5184C263.321 44.5184 266.507 46.2084 268.333 49.5884C269.46 47.9566 270.742 46.7134 272.179 45.8587C273.617 44.9651 275.501 44.5184 277.832 44.5184C281.639 44.5184 284.456 45.6644 286.282 47.9566C288.147 50.2488 289.079 53.4928 289.079 57.6887V73.8311C289.079 74.2585 288.924 74.6275 288.613 74.9384C288.302 75.2492 287.933 75.4046 287.506 75.4046H285.35C284.922 75.4046 284.553 75.2492 284.242 74.9384C283.932 74.6275 283.776 74.2585 283.776 73.8311V58.2715C283.776 52.4439 281.484 49.5301 276.9 49.5301C274.802 49.5301 273.131 50.2294 271.888 51.628C270.645 53.0266 270.023 55.1051 270.023 57.8635V73.8311C270.023 74.2585 269.868 74.6275 269.557 74.9384C269.246 75.2492 268.877 75.4046 268.45 75.4046H266.293C265.866 75.4046 265.497 75.2492 265.186 74.9384C264.875 74.6275 264.72 74.2585 264.72 73.8311V58.2715C264.72 52.4439 262.428 49.5301 257.844 49.5301C255.746 49.5301 254.075 50.2294 252.832 51.628C251.589 53.0266 250.967 55.1051 250.967 57.8635V73.8311C250.967 74.2585 250.812 74.6275 250.501 74.9384C250.19 75.2492 249.821 75.4046 249.393 75.4046H247.237C246.81 75.4046 246.441 75.2492 246.13 74.9384C245.819 74.6275 245.664 74.2585 245.664 73.8311V46.6746C245.664 46.2472 245.819 45.8781 246.13 45.5673C246.441 45.2565 246.81 45.1011 247.237 45.1011H249.393C249.821 45.1011 250.19 45.2565 250.501 45.5673C250.812 45.8781 250.967 46.2472 250.967 46.6746V48.4811Z" fill="url(#paint8_linear)"/>
<path d="M305.401 85.0784C305.051 86.0108 304.488 86.477 303.711 86.477H301.321C300.933 86.477 300.603 86.341 300.331 86.069C300.059 85.7971 299.923 85.4669 299.923 85.0784C299.923 84.923 299.942 84.787 299.981 84.6704L305.576 72.4908L294.037 46.9077C293.998 46.7911 293.979 46.6551 293.979 46.4997C293.979 46.1112 294.115 45.781 294.387 45.509C294.659 45.2371 294.989 45.1011 295.377 45.1011H297.767C298.544 45.1011 299.107 45.5673 299.457 46.4997L308.431 66.3135L317.522 46.4997C317.872 45.5673 318.435 45.1011 319.212 45.1011H321.601C321.99 45.1011 322.32 45.2371 322.592 45.509C322.864 45.781 323 46.1112 323 46.4997C323 46.6551 322.981 46.7911 322.942 46.9077L305.401 85.0784Z" fill="url(#paint9_linear)"/>
<defs>
<linearGradient id="paint0_linear" x1="331.539" y1="24.4224" x2="241.386" y2="182.095" gradientUnits="userSpaceOnUse">
<stop stop-color="#05D5FF"/>
<stop offset="1" stop-color="#5533FF"/>
</linearGradient>
<linearGradient id="paint1_linear" x1="331.539" y1="24.4224" x2="241.386" y2="182.095" gradientUnits="userSpaceOnUse">
<stop stop-color="#05D5FF"/>
<stop offset="1" stop-color="#5533FF"/>
</linearGradient>
<linearGradient id="paint2_linear" x1="331.539" y1="24.4224" x2="241.386" y2="182.095" gradientUnits="userSpaceOnUse">
<stop stop-color="#05D5FF"/>
<stop offset="1" stop-color="#5533FF"/>
</linearGradient>
<linearGradient id="paint3_linear" x1="331.539" y1="24.4224" x2="241.386" y2="182.095" gradientUnits="userSpaceOnUse">
<stop stop-color="#05D5FF"/>
<stop offset="1" stop-color="#5533FF"/>
</linearGradient>
<linearGradient id="paint4_linear" x1="331.539" y1="24.4224" x2="241.386" y2="182.095" gradientUnits="userSpaceOnUse">
<stop stop-color="#05D5FF"/>
<stop offset="1" stop-color="#5533FF"/>
</linearGradient>
<linearGradient id="paint5_linear" x1="331.539" y1="24.4224" x2="241.386" y2="182.095" gradientUnits="userSpaceOnUse">
<stop stop-color="#05D5FF"/>
<stop offset="1" stop-color="#5533FF"/>
</linearGradient>
<linearGradient id="paint6_linear" x1="331.539" y1="24.4224" x2="241.386" y2="182.095" gradientUnits="userSpaceOnUse">
<stop stop-color="#05D5FF"/>
<stop offset="1" stop-color="#5533FF"/>
</linearGradient>
<linearGradient id="paint7_linear" x1="331.539" y1="24.4224" x2="241.386" y2="182.095" gradientUnits="userSpaceOnUse">
<stop stop-color="#05D5FF"/>
<stop offset="1" stop-color="#5533FF"/>
</linearGradient>
<linearGradient id="paint8_linear" x1="331.539" y1="24.4224" x2="241.386" y2="182.095" gradientUnits="userSpaceOnUse">
<stop stop-color="#05D5FF"/>
<stop offset="1" stop-color="#5533FF"/>
</linearGradient>
<linearGradient id="paint9_linear" x1="331.539" y1="24.4224" x2="241.386" y2="182.095" gradientUnits="userSpaceOnUse">
<stop stop-color="#05D5FF"/>
<stop offset="1" stop-color="#5533FF"/>
</linearGradient>
</defs>
</svg>
